<svg width="200" height="261" viewBox="0 0 200 261" fill="none" xmlns="http://www.w3.org/2000/svg">
<path d="M0 0H130.5L199.5 128.5L130.5 261H0V0Z" fill="#FF1111"/>
<path d="M33.7119 174.21V151.505C33.7119 149.877 34.2409 148.535 35.2988 147.477C36.3568 146.337 37.7402 145.768 39.4492 145.768H53.7314C55.1963 145.768 56.4984 146.297 57.6377 147.354C58.8584 148.412 59.4688 149.796 59.4688 151.505V168.961C59.4688 174.088 60.7708 178.035 63.375 180.802C66.0605 183.569 69.8447 184.952 74.7275 184.952H83.1504C87.7891 184.952 91.3698 183.528 93.8926 180.68C96.4154 177.75 97.6768 173.844 97.6768 168.961V159.195C97.6768 154.719 96.8223 150.895 95.1133 147.721C93.4857 144.547 91.7767 142.268 89.9863 140.885C88.2773 139.501 85.6732 137.792 82.1738 135.758L51.168 117.447C40.3444 111.1 34.9326 100.886 34.9326 86.8076V68.9854C34.9326 58.8128 37.9844 50.7562 44.0879 44.8154C50.2728 38.7933 58.2887 35.2533 68.1357 34.1953V14.7861C68.1357 13.1585 68.6647 11.8158 69.7227 10.7578C70.862 9.61849 72.2454 9.04883 73.873 9.04883H85.2256C86.8532 9.04883 88.196 9.5778 89.2539 10.6357C90.3932 11.6937 90.9629 13.0771 90.9629 14.7861V34.1953C100.973 35.0091 108.989 38.5085 115.011 44.6934C121.114 50.8783 124.166 59.1383 124.166 69.4736V89.0049C124.166 90.6325 123.596 92.016 122.457 93.1553C121.399 94.2132 120.056 94.7422 118.429 94.7422H104.146C102.682 94.7422 101.339 94.2132 100.118 93.1553C98.9788 92.016 98.4092 90.6325 98.4092 89.0049V73.9902C98.4092 69.026 97.0664 65.1198 94.3809 62.2715C91.7767 59.4232 88.0332 57.999 83.1504 57.999H75.2158C70.5771 57.999 66.9964 59.4232 64.4736 62.2715C61.9508 65.1198 60.6895 68.9447 60.6895 73.7461V80.7041C60.6895 85.0173 61.4219 88.3945 62.8867 90.8359C64.4329 93.2773 67.3626 95.8408 71.6758 98.5264L101.217 115.982C108.867 120.458 114.482 125.423 118.062 130.875C121.643 136.327 123.434 143.285 123.434 151.749V173.966C123.434 183.813 120.341 191.951 114.156 198.38C107.971 204.809 100.24 208.349 90.9629 209V228.287C90.9629 229.915 90.3932 231.257 89.2539 232.315C88.196 233.455 86.8532 234.024 85.2256 234.024H73.873C72.2454 234.024 70.862 233.455 69.7227 232.315C68.6647 231.257 68.1357 229.915 68.1357 228.287V208.756C57.9632 208.105 49.6624 204.809 43.2334 198.868C36.8857 192.927 33.7119 184.708 33.7119 174.21Z" fill="white"/>
</svg>
